<?xml version="1.0" encoding="UTF-8" standalone="no"?>
<!DOCTYPE svg PUBLIC "-//W3C//DTD SVG 1.1//EN" "http://www.w3.org/Graphics/SVG/1.1/DTD/svg11.dtd">
<svg xmlns="http://www.w3.org/2000/svg" version="1.1" viewBox="0.00 0.00 1448.00 1448.00">
<path fill="#f0ffff" d="
  M 957.40 459.05
  C 957.97 461.07 958.64 463.29 959.13 465.30
  Q 962.46 479.06 962.87 483.50
  C 963.42 489.37 964.84 494.99 964.97 500.94
  Q 965.04 504.65 965.44 508.33
  C 965.82 511.77 965.77 514.76 965.78 518.05
  C 965.78 519.19 966.56 520.19 966.34 521.22
  C 966.01 522.71 965.70 524.03 965.75 525.61
  C 965.95 532.08 965.03 538.33 965.09 544.75
  C 965.14 549.66 963.44 555.03 962.93 560.02
  C 962.44 564.89 961.16 569.77 960.16 574.57
  Q 959.82 576.18 958.99 579.27
  C 957.26 585.76 955.83 591.36 952.78 600.00
  C 944.52 623.40 932.86 644.72 917.96 664.49
  Q 909.72 675.43 906.45 678.70
  C 898.06 687.10 889.53 696.12 880.79 703.35
  C 873.16 709.66 865.16 716.02 856.60 721.06
  Q 852.20 723.64 847.79 726.20
  Q 832.80 734.87 816.77 741.43
  Q 809.26 744.51 794.92 748.92
  C 792.35 749.71 789.92 750.14 787.74 750.76
  Q 785.56 751.38 781.50 752.27
  Q 768.04 755.20 761.25 755.93
  Q 761.06 755.95 760.77 756.17
  Q 760.38 756.46 759.90 756.46
  C 756.93 756.49 754.23 757.31 751.35 757.23
  C 746.56 757.11 741.46 757.97 737.22 757.99
  C 730.24 758.03 723.05 758.35 716.11 757.57
  C 711.43 757.04 706.44 757.36 702.25 756.69
  Q 698.26 756.05 694.29 755.31
  C 692.53 754.98 690.55 755.14 688.89 754.83
  Q 661.12 749.61 640.49 740.94
  C 606.42 726.62 575.94 705.32 551.80 677.65
  Q 526.34 648.47 511.08 612.71
  C 509.40 608.79 507.64 603.40 505.78 598.79
  C 503.98 594.30 502.93 589.44 501.63 584.81
  Q 499.29 576.47 497.65 567.96
  Q 497.51 567.24 497.36 566.50
  Q 496.03 560.30 495.02 554.03
  Q 494.49 550.75 494.43 547.41
  Q 494.42 546.56 493.97 544.88
  C 493.31 542.40 493.92 539.13 493.63 536.39
  C 492.30 523.81 493.21 512.78 493.70 504.18
  Q 493.98 499.31 494.09 498.35
  Q 496.60 476.97 502.37 456.22
  Q 502.50 455.75 502.62 455.29
  C 503.92 450.33 506.06 444.95 507.48 441.04
  C 518.64 410.15 536.13 383.05 558.40 359.07
  Q 562.16 355.01 567.96 349.80
  C 572.38 345.84 576.70 341.66 581.34 338.11
  C 591.33 330.46 599.48 324.46 612.19 316.86
  C 626.80 308.13 642.42 302.29 658.59 296.62
  C 663.15 295.02 668.26 293.96 673.50 292.51
  Q 679.58 290.82 687.58 289.59
  Q 692.84 288.77 697.87 287.88
  Q 705.00 286.61 708.24 286.67
  C 710.46 286.72 712.18 286.02 713.93 286.01
  Q 728.75 285.98 743.58 286.01
  Q 744.80 286.01 747.86 286.58
  C 749.81 286.93 751.77 286.61 753.69 286.98
  C 757.44 287.68 761.47 287.56 765.20 288.45
  C 769.11 289.38 773.50 289.79 776.98 290.57
  Q 787.03 292.82 796.93 295.70
  Q 799.82 296.53 802.68 297.45
  Q 820.66 303.21 837.48 311.76
  Q 857.61 322.00 877.10 337.56
  Q 885.09 343.94 892.19 350.70
  Q 935.31 391.82 954.32 449.02
  Q 955.97 454.00 957.40 459.05
  Z
  M 880.9717 391.0954
  A 20.70 20.70 0.0 0 0 860.2356 370.4316
  L 598.1960 370.8889
  A 20.70 20.70 0.0 0 0 577.5322 391.6250
  L 577.9883 652.9846
  A 20.70 20.70 0.0 0 0 598.7244 673.6484
  L 860.7640 673.1911
  A 20.70 20.70 0.0 0 0 881.4278 652.4550
  L 880.9717 391.0954
  Z"
/>
<path fill="#f0ffff" d="
  M 586.21 386.56
  C 588.50 379.21 597.07 377.33 603.75 377.32
  Q 693.34 377.23 783.29 377.24
  Q 784.03 377.24 784.03 377.98
  L 784.03 506.99
  Q 784.03 507.50 783.51 507.50
  L 585.52 507.50
  Q 585.07 507.50 585.07 507.05
  Q 584.75 481.98 584.41 457.00
  C 584.20 441.61 584.54 425.51 584.47 409.75
  C 584.45 404.28 585.09 397.78 584.99 391.75
  Q 584.97 390.52 586.21 386.56
  Z
  M 758.61 404.56
  A 14.02 14.02 0.0 0 0 744.59 390.54
  A 14.02 14.02 0.0 0 0 730.57 404.56
  A 14.02 14.02 0.0 0 0 744.59 418.58
  A 14.02 14.02 0.0 0 0 758.61 404.56
  Z
  M 708.9813 446.3041
  A 48.23 48.07 4.5 0 0 664.6715 394.5982
  A 48.23 48.07 4.5 0 0 612.8187 438.7359
  A 48.23 48.07 4.5 0 0 657.1285 490.4418
  A 48.23 48.07 4.5 0 0 708.9813 446.3041
  Z
  M 758.41 442.81
  A 13.94 13.94 0.0 0 0 744.47 428.87
  A 13.94 13.94 0.0 0 0 730.53 442.81
  A 13.94 13.94 0.0 0 0 744.47 456.75
  A 13.94 13.94 0.0 0 0 758.41 442.81
  Z
  M 758.48 481.15
  A 13.96 13.96 0.0 0 0 744.52 467.19
  A 13.96 13.96 0.0 0 0 730.56 481.15
  A 13.96 13.96 0.0 0 0 744.52 495.11
  A 13.96 13.96 0.0 0 0 758.48 481.15
  Z"
/>
<path fill="#f0ffff" d="
  M 873.88 394.37
  C 874.23 422.09 874.10 449.79 874.06 477.50
  Q 873.92 561.25 873.78 645.00
  C 873.77 648.94 874.69 655.02 872.60 658.45
  C 868.59 665.01 862.70 666.51 855.25 666.59
  Q 824.23 666.92 792.35 666.56
  A 1.62 1.61 -88.8 0 1 790.75 664.88
  Q 791.13 654.16 791.12 642.50
  Q 790.98 510.40 790.82 378.29
  A 0.63 0.62 -3.7 0 1 791.37 377.67
  Q 794.39 377.28 796.50 377.27
  Q 814.25 377.18 854.73 377.26
  C 857.81 377.27 862.29 377.67 865.05 378.91
  C 871.90 381.98 873.78 386.90 873.88 394.37
  Z
  M 857.85 396.20
  A 2.62 2.62 0.0 0 0 855.23 393.58
  L 816.39 393.58
  A 2.62 2.62 0.0 0 0 813.77 396.20
  L 813.77 397.72
  A 2.62 2.62 0.0 0 0 816.39 400.34
  L 855.23 400.34
  A 2.62 2.62 0.0 0 0 857.85 397.72
  L 857.85 396.20
  Z
  M 814.93 424.38
  L 856.09 424.30
  A 1.20 1.20 0.0 0 0 857.28 423.10
  L 857.28 420.01
  A 3.63 2.37 -0.1 0 0 853.64 417.65
  L 817.34 417.71
  A 3.63 2.37 -0.1 0 0 813.72 420.09
  L 813.72 423.18
  A 1.20 1.20 0.0 0 0 814.93 424.38
  Z
  M 864.8889 477.6655
  A 32.26 31.13 -1.5 0 0 831.8251 447.3907
  A 32.26 31.13 -1.5 0 0 800.3911 479.3545
  A 32.26 31.13 -1.5 0 0 833.4549 509.6293
  A 32.26 31.13 -1.5 0 0 864.8889 477.6655
  Z
  M 864.9641 551.1295
  A 32.27 31.09 1.1 0 0 833.2968 519.4257
  A 32.27 31.09 1.1 0 0 800.4359 549.8905
  A 32.27 31.09 1.1 0 0 832.1032 581.5943
  A 32.27 31.09 1.1 0 0 864.9641 551.1295
  Z
  M 864.8733 624.5120
  A 32.24 31.12 3.4 0 0 834.5356 591.5348
  A 32.24 31.12 3.4 0 0 800.5067 620.6880
  A 32.24 31.12 3.4 0 0 830.8444 653.6652
  A 32.24 31.12 3.4 0 0 864.8733 624.5120
  Z"
/>
<ellipse fill="#f0ffff" cx="0.00" cy="0.00" transform="translate(744.56,404.58) rotate(-11.2)" rx="7.39" ry="7.20"/>
<path fill="#f0ffff" d="
  M 701.8562 437.8019
  A 41.31 41.14 -6.6 0 1 665.5485 483.4174
  A 41.31 41.14 -6.6 0 1 619.7838 447.2981
  A 41.31 41.14 -6.6 0 1 656.0915 401.6826
  A 41.31 41.14 -6.6 0 1 701.8562 437.8019
  Z
  M 673.43 442.53
  A 12.48 12.48 0.0 0 0 660.95 430.05
  A 12.48 12.48 0.0 0 0 648.47 442.53
  A 12.48 12.48 0.0 0 0 660.95 455.01
  A 12.48 12.48 0.0 0 0 673.43 442.53
  Z"
/>
<circle fill="#f0ffff" cx="744.45" cy="442.92" r="7.30"/>
<ellipse fill="#f0ffff" cx="0.00" cy="0.00" transform="translate(660.59,442.54) rotate(7.4)" rx="5.79" ry="5.57"/>
<path fill="#f0ffff" d="
  M 857.78 478.48
  A 25.04 24.08 0.0 0 1 832.74 502.56
  A 25.04 24.08 0.0 0 1 807.70 478.48
  A 25.04 24.08 0.0 0 1 832.74 454.40
  A 25.04 24.08 0.0 0 1 857.78 478.48
  Z
  M 836.75 480.75
  L 843.98 480.75
  A 2.95 2.95 0.0 0 0 846.93 477.70
  L 846.92 477.43
  Q 846.83 474.59 844.00 474.27
  L 836.24 473.39
  Q 835.66 473.32 835.57 472.73
  C 835.14 469.77 837.26 467.06 834.90 464.44
  Q 834.57 464.09 834.09 464.07
  L 831.38 464.00
  A 2.28 2.28 0.0 0 0 829.03 466.25
  L 828.96 472.84
  A 1.29 1.28 -89.1 0 1 827.66 474.11
  L 821.30 474.03
  Q 818.85 474.00 818.80 476.45
  L 818.75 478.20
  Q 818.69 480.70 821.19 480.71
  L 828.52 480.77
  A 0.43 0.43 0.0 0 1 828.95 481.18
  C 829.09 485.06 828.55 488.56 831.43 491.65
  A 1.17 1.16 -25.2 0 0 832.44 492.01
  Q 833.87 491.83 835.07 491.14
  A 0.93 0.92 72.7 0 0 835.52 490.28
  Q 835.44 489.29 835.99 488.49
  Q 836.24 488.13 836.24 487.69
  L 836.25 481.25
  Q 836.25 480.75 836.75 480.75
  Z"
/>
<circle fill="#f0ffff" cx="744.55" cy="481.10" r="7.32"/>
<path fill="#f0ffff" d="
  M 619.10 524.90
  C 614.44 525.23 607.54 524.97 603.58 527.77
  Q 595.00 533.82 596.58 544.74
  Q 597.01 547.69 600.41 552.28
  Q 602.23 554.72 605.79 555.89
  C 609.57 557.14 615.24 556.90 619.63 557.35
  A 0.92 0.92 0.0 0 1 620.46 558.27
  L 620.47 665.51
  A 0.80 0.79 88.9 0 1 619.71 666.31
  Q 608.61 666.82 597.82 666.08
  C 590.43 665.57 585.17 659.97 585.03 652.59
  C 584.09 603.17 584.95 560.74 585.04 514.86
  A 0.74 0.74 0.0 0 1 585.78 514.13
  L 619.11 514.12
  Q 619.72 514.12 619.74 514.73
  L 620.17 523.70
  Q 620.22 524.82 619.10 524.90
  Z"
/>
<path fill="#f0ffff" d="
  M 634.50 666.55
  Q 630.05 666.53 627.58 666.27
  Q 627.08 666.22 627.08 665.71
  L 627.09 558.18
  Q 627.09 557.55 627.71 557.44
  Q 631.32 556.80 636.74 556.79
  C 645.47 556.76 651.36 548.42 650.88 540.36
  C 650.42 532.72 644.82 526.18 636.97 525.55
  C 635.60 525.44 634.32 525.00 632.99 525.00
  Q 630.51 524.99 628.02 525.20
  A 0.93 0.92 -2.3 0 1 627.01 524.27
  L 627.07 515.79
  Q 627.09 514.17 628.71 514.17
  L 676.50 514.07
  Q 676.93 514.07 676.93 514.50
  L 676.93 620.77
  A 0.53 0.52 3.0 0 1 676.35 621.29
  C 668.51 620.48 660.82 621.36 656.02 628.35
  C 654.48 630.60 653.90 633.74 652.99 636.50
  A 1.88 1.87 -42.7 0 0 652.95 637.47
  C 654.45 644.08 656.22 649.57 662.68 652.00
  C 666.28 653.35 671.95 653.19 676.37 653.43
  Q 676.91 653.46 676.92 654.01
  L 676.96 665.75
  A 0.57 0.56 89.5 0 1 676.41 666.32
  Q 663.19 666.66 634.50 666.55
  Z"
/>
<path fill="#f0ffff" d="
  M 684.68 653.42
  L 696.71 652.55
  Q 697.24 652.51 697.73 652.30
  C 705.44 648.92 710.50 640.18 707.18 631.92
  Q 704.06 624.19 695.96 622.16
  Q 690.07 620.68 684.12 621.27
  A 0.53 0.53 0.0 0 1 683.54 620.74
  L 683.61 515.77
  A 1.62 1.62 0.0 0 1 685.23 514.15
  L 741.56 514.06
  Q 742.06 514.06 742.07 514.56
  L 742.09 573.73
  A 0.45 0.44 1.2 0 1 741.62 574.17
  Q 736.62 573.94 731.74 574.99
  Q 726.33 576.15 723.16 579.30
  C 715.71 586.71 717.74 599.79 727.21 605.06
  Q 727.60 605.27 728.05 605.25
  Q 729.32 605.20 730.45 605.83
  A 0.70 0.69 59.3 0 0 730.68 605.89
  L 741.71 607.00
  Q 742.15 607.04 742.15 607.48
  L 742.22 665.54
  Q 742.22 666.55 741.21 666.55
  L 685.28 666.60
  Q 683.59 666.60 683.61 664.91
  L 683.73 654.44
  A 1.03 1.03 0.0 0 1 684.68 653.42
  Z"
/>
<path fill="#f0ffff" d="
  M 772.16 584.08
  C 769.04 575.97 758.73 573.73 750.06 574.21
  Q 749.37 574.25 749.37 573.56
  L 749.37 514.74
  A 0.64 0.64 0.0 0 1 750.01 514.10
  L 783.46 514.15
  A 0.57 0.56 -0.0 0 1 784.03 514.71
  L 784.03 666.08
  A 0.61 0.61 0.0 0 1 783.42 666.69
  L 750.84 666.55
  Q 749.37 666.55 749.37 665.08
  L 749.37 607.26
  Q 749.37 606.82 749.81 606.80
  Q 752.83 606.69 755.79 606.74
  C 757.05 606.77 757.80 606.11 758.97 606.01
  C 770.36 604.99 776.16 594.43 772.16 584.08
  Z"
/>
<path fill="#f0ffff" d="
  M 840.68 527.72
  C 842.68 528.09 845.32 529.95 847.16 530.93
  Q 850.25 532.59 851.86 534.71
  C 855.74 539.83 858.97 547.51 857.48 554.00
  C 856.18 559.68 853.84 564.71 849.24 568.48
  C 843.05 573.54 836.55 574.80 828.25 574.01
  Q 822.80 573.50 817.79 569.95
  C 800.40 557.62 807.08 530.07 828.07 526.97
  C 830.33 526.64 832.44 526.00 835.09 526.73
  Q 837.05 527.28 839.13 527.10
  Q 839.40 527.08 839.85 527.38
  A 2.37 2.32 -22.0 0 0 840.68 527.72
  Z
  M 836.70 553.22
  C 839.42 553.33 850.68 553.18 846.36 547.07
  Q 846.10 546.70 845.66 546.65
  L 836.71 545.62
  Q 836.11 545.55 836.11 544.94
  L 836.14 537.68
  A 0.76 0.76 0.0 0 0 835.97 537.20
  Q 833.98 534.84 830.75 535.97
  A 1.56 1.53 4.9 0 0 829.95 536.63
  C 828.42 539.27 829.11 542.47 828.93 545.42
  Q 828.90 545.94 828.38 545.93
  C 824.91 545.87 819.69 545.38 818.31 549.39
  A 2.03 2.02 -68.2 0 0 819.38 551.90
  Q 823.57 553.80 828.22 553.08
  A 0.66 0.65 -4.5 0 1 828.98 553.72
  L 828.99 560.53
  A 2.76 2.76 0.0 0 0 831.78 563.28
  L 835.01 563.26
  A 0.63 0.62 5.9 0 0 835.61 562.78
  Q 836.64 558.35 836.17 553.79
  Q 836.11 553.20 836.70 553.22
  Z"
/>
<rect fill="#f0ffff" x="-20.22" y="-9.07" transform="translate(623.42,541.17) rotate(0.3)" width="40.44" height="18.14" rx="8.66"/>
<rect fill="#f0ffff" x="-20.45" y="-9.16" transform="translate(745.98,590.32) rotate(-0.6)" width="40.90" height="18.32" rx="8.75"/>
<path fill="#f0ffff" d="
  M 857.7254 622.0804
  A 24.98 23.98 -1.1 0 1 833.2104 646.5356
  A 24.98 23.98 -1.1 0 1 807.7746 623.0396
  A 24.98 23.98 -1.1 0 1 832.2896 598.5844
  A 24.98 23.98 -1.1 0 1 857.7254 622.0804
  Z
  M 828.44 618.17
  C 825.15 618.40 821.00 617.45 819.26 619.44
  C 818.28 620.55 818.54 622.87 819.58 623.90
  C 822.05 626.35 825.33 624.98 828.18 625.40
  A 1.05 1.04 8.1 0 1 829.07 626.57
  C 828.70 629.31 829.11 638.47 834.59 635.23
  C 836.99 633.80 836.18 628.28 836.29 626.06
  Q 836.32 625.49 836.89 625.46
  C 840.73 625.23 847.58 626.34 847.01 619.82
  Q 846.97 619.38 846.56 619.24
  Q 842.30 617.82 837.77 618.31
  A 1.16 1.16 0.0 0 1 836.49 617.28
  L 835.62 608.93
  Q 835.54 608.21 834.84 608.05
  Q 832.56 607.52 830.39 608.46
  Q 829.95 608.66 829.81 609.12
  Q 828.59 613.20 829.02 617.48
  Q 829.09 618.13 828.44 618.17
  Z"
/>
<path fill="#f0ffff" d="
  M 662.41 643.42
  C 661.40 641.98 659.10 639.04 659.67 637.02
  Q 661.32 631.15 666.12 628.97
  C 670.80 626.85 680.23 627.74 686.20 627.75
  C 689.35 627.76 692.30 628.19 695.39 628.62
  C 697.84 628.96 699.88 632.87 700.81 635.11
  C 702.26 638.56 700.31 641.78 697.89 644.07
  Q 696.35 645.53 693.65 645.91
  C 685.98 646.97 677.99 646.50 670.25 646.50
  Q 668.72 646.50 665.71 645.65
  Q 663.54 645.04 662.41 643.42
  Z"
/>
<path fill="#f0ffff" d="
  M 324.14 1004.42
  C 323.28 1000.30 323.91 996.14 323.47 991.97
  C 322.73 984.91 323.52 977.88 322.48 970.91
  Q 322.23 969.22 322.23 968.07
  Q 322.23 937.91 322.24 907.75
  C 322.24 906.26 322.95 904.23 322.96 902.40
  Q 322.97 897.14 322.98 891.88
  C 322.98 889.41 323.80 886.14 323.70 883.14
  C 323.60 879.96 324.05 877.24 324.30 874.22
  C 324.73 869.02 325.89 863.87 326.89 858.78
  Q 328.15 852.38 332.85 844.34
  Q 337.92 835.67 347.96 831.92
  C 351.81 830.49 356.60 829.99 360.72 829.75
  C 362.78 829.63 364.58 829.03 366.60 829.24
  C 371.74 829.78 377.41 830.05 381.99 831.67
  C 392.86 835.52 399.50 844.70 402.42 855.28
  C 403.32 858.53 404.31 861.63 404.80 864.97
  C 405.69 871.10 406.62 876.86 406.86 883.33
  C 406.97 886.56 407.53 889.82 407.53 892.89
  Q 407.51 904.33 407.73 911.50
  C 407.78 913.17 408.25 915.08 408.26 916.84
  Q 408.30 935.16 408.27 953.49
  Q 408.26 955.60 408.07 958.49
  C 407.43 967.99 407.54 977.47 407.53 986.97
  C 407.53 990.72 406.77 994.96 406.82 999.07
  Q 406.83 1000.95 406.34 1003.39
  C 405.96 1005.21 406.00 1007.48 405.82 1009.41
  Q 405.34 1014.64 404.11 1019.73
  C 400.84 1033.35 396.64 1047.38 381.82 1051.99
  C 378.75 1052.95 374.78 1053.13 371.30 1053.67
  C 363.98 1054.82 357.65 1053.50 350.48 1052.50
  Q 342.87 1051.44 336.77 1044.44
  C 336.14 1043.71 334.46 1041.62 333.91 1040.61
  Q 328.52 1030.65 327.24 1023.75
  C 326.50 1019.76 325.48 1015.61 325.10 1011.58
  C 324.99 1010.50 324.41 1009.81 324.38 1008.78
  C 324.35 1007.28 324.46 1005.94 324.14 1004.42
  Z
  M 377.34 1015.57
  C 377.98 1013.34 377.82 1011.11 378.43 1008.89
  C 378.98 1006.84 378.54 1004.88 378.93 1002.81
  Q 379.36 1000.48 379.37 999.13
  C 379.41 993.81 380.11 988.22 380.12 983.28
  Q 380.14 939.14 380.12 895.00
  C 380.11 889.99 379.22 883.75 379.48 878.00
  Q 379.54 876.59 378.88 875.34
  Q 378.65 874.90 378.70 874.40
  C 378.96 871.62 378.09 869.11 378.05 866.47
  Q 377.96 859.95 374.42 855.79
  C 369.03 849.47 359.59 850.01 355.28 857.00
  C 353.46 859.93 352.86 864.12 352.13 867.73
  C 351.76 869.57 351.91 871.47 351.59 873.40
  Q 351.16 876.05 351.16 877.62
  C 351.16 884.28 350.39 891.35 350.39 897.47
  Q 350.41 938.18 350.41 978.89
  C 350.41 985.27 351.30 993.11 351.13 1000.30
  C 351.08 1002.54 351.65 1004.78 351.79 1007.07
  C 352.11 1012.43 353.21 1018.60 356.44 1023.04
  C 359.20 1026.85 363.02 1025.98 366.88 1025.99
  C 373.82 1026.01 375.71 1021.28 377.34 1015.57
  Z"
/>
<path fill="#f0ffff" d="
  M 1121.07 855.26
  Q 1121.26 855.44 1121.29 855.73
  Q 1121.74 859.38 1122.72 862.94
  C 1123.01 863.98 1122.69 865.12 1123.33 866.19
  Q 1123.56 866.58 1123.59 867.03
  C 1123.96 873.94 1125.42 880.84 1125.00 887.79
  Q 1124.98 888.28 1124.48 888.28
  L 1097.50 888.28
  Q 1096.96 888.28 1096.98 887.73
  Q 1097.25 878.64 1096.11 869.72
  C 1096.04 869.12 1095.85 868.91 1095.61 868.38
  Q 1095.41 867.93 1095.47 867.44
  Q 1095.65 865.98 1094.94 864.70
  Q 1094.69 864.24 1094.71 863.73
  Q 1094.90 859.41 1092.37 855.94
  C 1090.26 853.05 1087.94 852.83 1084.77 851.89
  C 1081.41 850.89 1076.84 854.22 1075.30 856.77
  C 1073.59 859.61 1072.32 865.04 1072.30 868.59
  C 1072.28 872.73 1071.49 876.96 1071.50 880.80
  C 1071.52 887.10 1071.24 893.77 1071.76 899.78
  C 1072.29 905.91 1073.93 910.73 1077.24 914.87
  C 1086.06 925.92 1099.56 931.49 1109.51 941.34
  C 1118.65 950.40 1124.14 961.67 1124.96 974.26
  C 1125.07 975.84 1125.77 977.10 1125.77 978.61
  Q 1125.76 992.13 1125.78 1005.65
  Q 1125.78 1007.34 1125.32 1010.30
  C 1125.00 1012.42 1125.08 1014.60 1124.78 1016.55
  Q 1123.88 1022.54 1123.60 1025.00
  Q 1123.52 1025.64 1123.23 1026.03
  Q 1123.00 1026.34 1122.92 1026.73
  C 1121.38 1034.22 1117.80 1041.42 1111.81 1046.29
  C 1107.65 1049.67 1104.69 1050.43 1100.45 1051.83
  Q 1097.36 1052.85 1094.94 1053.23
  C 1084.62 1054.88 1069.40 1055.42 1060.90 1048.22
  C 1059.21 1046.78 1057.38 1045.62 1056.07 1043.89
  Q 1050.54 1036.56 1048.32 1027.57
  Q 1047.29 1023.42 1046.47 1019.20
  Q 1045.51 1014.26 1044.95 1009.25
  Q 1044.93 1009.11 1044.20 1004.80
  C 1043.86 1002.79 1044.05 1000.67 1043.79 998.75
  Q 1042.86 991.89 1043.43 984.82
  Q 1043.49 984.05 1044.26 984.06
  L 1070.25 984.26
  A 1.24 1.23 -0.2 0 1 1071.48 985.47
  C 1071.52 987.74 1071.44 989.92 1071.69 992.18
  C 1072.33 997.90 1072.04 1004.26 1072.74 1009.25
  Q 1073.61 1015.43 1075.12 1020.01
  Q 1076.08 1022.92 1078.77 1024.87
  C 1080.94 1026.43 1084.17 1026.19 1086.50 1025.99
  Q 1092.31 1025.47 1094.68 1020.26
  Q 1095.79 1017.83 1096.73 1009.25
  Q 1097.56 1001.70 1097.02 982.85
  Q 1096.85 976.89 1095.46 972.85
  C 1092.13 963.15 1084.65 956.93 1075.57 949.93
  Q 1063.25 940.42 1059.45 936.80
  Q 1049.93 927.73 1045.81 915.24
  Q 1045.16 913.27 1044.03 906.77
  Q 1043.31 902.64 1043.29 898.17
  Q 1043.26 887.14 1043.28 876.10
  C 1043.29 873.49 1043.92 871.22 1044.03 868.69
  Q 1044.09 867.36 1044.50 865.00
  Q 1046.31 854.61 1048.94 848.18
  Q 1049.51 846.78 1051.44 843.72
  C 1055.45 837.38 1062.63 833.04 1069.76 831.09
  C 1071.64 830.58 1073.78 830.47 1075.85 830.05
  C 1077.46 829.73 1079.60 829.94 1081.44 829.42
  C 1084.14 828.66 1088.16 828.76 1090.88 829.42
  Q 1091.85 829.66 1093.25 829.74
  Q 1096.93 829.94 1104.07 833.29
  Q 1113.54 837.75 1118.10 847.67
  Q 1120.02 851.83 1120.79 854.79
  Q 1120.87 855.06 1121.07 855.26
  Z"
/>
<path fill="#f0ffff" d="
  M 1178.52 1053.34
  C 1173.74 1053.32 1168.20 1051.51 1163.91 1048.61
  C 1153.74 1041.75 1151.25 1029.87 1148.41 1018.87
  Q 1148.21 1018.11 1148.21 1016.78
  C 1148.22 1015.19 1147.55 1013.91 1147.49 1012.26
  Q 1147.44 1011.04 1147.10 1009.80
  C 1146.62 1008.02 1146.96 1006.21 1146.57 1004.43
  C 1145.89 1001.30 1146.37 998.30 1145.82 995.30
  Q 1145.29 992.34 1145.33 991.38
  C 1145.58 984.86 1144.98 978.50 1144.88 972.00
  Q 1144.16 924.64 1144.74 912.75
  Q 1145.29 901.68 1145.38 890.59
  C 1145.40 886.90 1146.21 882.79 1146.16 878.75
  Q 1146.14 877.35 1146.57 875.30
  C 1146.91 873.70 1146.79 872.08 1147.07 870.58
  C 1148.97 860.36 1150.43 851.34 1155.96 843.01
  C 1160.22 836.59 1167.31 831.86 1175.52 830.50
  C 1179.05 829.91 1182.01 829.75 1185.61 829.13
  C 1188.80 828.57 1191.60 829.47 1194.43 829.70
  Q 1196.54 829.87 1198.02 830.19
  C 1199.72 830.55 1201.17 830.35 1202.78 831.08
  C 1205.20 832.17 1207.82 832.96 1209.95 834.25
  C 1218.90 839.68 1223.31 848.46 1225.67 858.03
  C 1227.01 863.42 1228.22 868.68 1228.75 874.34
  Q 1229.96 887.57 1230.03 891.50
  Q 1230.15 897.94 1230.35 902.00
  C 1231.27 920.86 1230.77 939.92 1230.76 958.81
  C 1230.76 966.69 1230.00 975.96 1230.00 984.57
  Q 1230.00 987.76 1229.54 992.89
  C 1229.20 996.61 1229.37 1000.66 1229.02 1004.03
  Q 1227.93 1014.62 1225.77 1023.75
  C 1223.15 1034.88 1217.70 1046.74 1206.04 1051.45
  C 1202.56 1052.85 1198.57 1053.13 1194.56 1053.73
  C 1190.45 1054.36 1186.31 1054.17 1182.19 1054.08
  C 1180.92 1054.06 1179.89 1053.35 1178.52 1053.34
  Z
  M 1184.96 852.03
  Q 1178.28 853.35 1176.51 859.25
  Q 1173.64 868.83 1173.52 882.74
  C 1173.49 886.14 1172.90 890.16 1172.89 893.75
  Q 1172.80 938.63 1173.14 983.50
  C 1173.22 994.36 1173.66 1005.67 1175.67 1016.35
  C 1176.16 1018.99 1177.82 1022.26 1180.15 1023.74
  C 1181.80 1024.79 1183.10 1025.93 1185.15 1026.01
  Q 1190.30 1026.21 1191.75 1025.91
  C 1199.24 1024.35 1200.06 1014.11 1200.95 1008.08
  C 1201.20 1006.41 1201.01 1004.53 1201.32 1002.72
  Q 1201.79 999.86 1201.82 998.74
  Q 1203.12 946.58 1202.47 918.50
  Q 1202.02 898.77 1201.82 879.04
  Q 1201.81 877.75 1201.38 875.50
  C 1201.00 873.49 1201.30 871.65 1200.79 869.64
  C 1200.31 867.78 1200.38 865.46 1200.06 863.94
  C 1198.77 857.76 1195.84 852.55 1189.01 851.43
  C 1187.39 851.16 1186.17 851.79 1184.96 852.03
  Z"
/>
<path fill="#f0ffff" d="
  M 874.44 936.43
  Q 873.81 934.30 873.80 936.52
  L 873.80 1050.30
  A 1.61 1.61 0.0 0 1 872.20 1051.91
  L 847.10 1052.00
  Q 845.19 1052.01 845.19 1050.10
  L 845.15 833.35
  Q 845.15 831.97 846.53 831.94
  Q 855.60 831.74 865.49 831.91
  Q 866.75 831.93 870.14 831.14
  Q 870.66 831.01 870.84 831.52
  C 872.01 834.73 872.42 838.14 873.32 841.38
  C 874.99 847.40 876.31 853.32 878.62 861.42
  C 882.15 873.75 885.12 886.01 888.41 898.29
  Q 892.46 913.43 896.56 928.56
  Q 898.17 934.51 899.80 940.47
  C 901.07 945.11 902.65 953.07 905.13 959.13
  Q 905.75 960.67 905.75 959.01
  L 905.75 832.52
  Q 905.75 832.05 906.22 832.01
  Q 918.32 831.01 930.32 831.85
  C 931.45 831.93 932.27 831.72 933.41 831.51
  Q 933.96 831.41 933.96 831.97
  L 933.96 1051.00
  A 0.96 0.96 0.0 0 1 933.00 1051.96
  L 909.77 1051.98
  A 1.32 1.31 81.7 0 1 908.51 1051.04
  L 874.44 936.43
  Z"
/>
<path fill="#f0ffff" d="
  M 1314.55 960.63
  Q 1315.44 963.93 1315.44 960.51
  L 1315.44 832.31
  A 0.54 0.53 -1.7 0 1 1315.95 831.78
  Q 1328.01 831.09 1340.07 831.82
  Q 1340.58 831.85 1341.02 831.61
  Q 1341.68 831.24 1342.43 831.12
  A 0.69 0.69 0.0 0 1 1343.22 831.80
  L 1343.11 1051.44
  Q 1343.11 1051.98 1342.56 1051.98
  L 1319.25 1051.97
  A 1.57 1.57 0.0 0 1 1317.75 1050.86
  C 1314.41 1039.94 1311.29 1028.85 1308.08 1017.84
  Q 1307.05 1014.34 1305.84 1010.89
  C 1303.55 1004.41 1302.40 997.51 1299.90 991.11
  C 1299.57 990.25 1299.71 989.18 1299.42 988.54
  C 1298.26 986.03 1297.60 983.01 1296.96 980.90
  Q 1292.35 965.58 1287.88 950.21
  Q 1287.06 947.38 1286.10 944.60
  C 1285.04 941.55 1284.79 937.92 1283.60 934.90
  Q 1282.91 933.12 1282.91 935.04
  L 1282.90 1051.54
  Q 1282.90 1051.98 1282.46 1051.98
  L 1256.01 1051.98
  Q 1255.51 1051.98 1255.47 1051.48
  C 1255.25 1048.27 1254.83 1045.02 1254.83 1041.84
  Q 1255.04 938.78 1254.97 833.56
  Q 1254.97 832.06 1256.47 831.96
  C 1263.54 831.51 1271.10 832.34 1278.34 831.25
  A 1.73 1.72 78.3 0 1 1280.25 832.51
  L 1314.55 960.63
  Z"
/>
<path fill="#f0ffff" d="
  M 605.02 948.24
  L 604.92 1022.58
  Q 604.92 1023.74 606.08 1023.74
  L 638.95 1023.75
  Q 640.65 1023.75 640.66 1025.45
  L 640.75 1050.48
  A 1.49 1.49 0.0 0 1 639.26 1051.97
  L 577.52 1051.98
  A 1.21 1.20 90.0 0 1 576.32 1050.77
  L 576.29 832.88
  Q 576.29 831.88 577.28 831.90
  C 584.03 831.99 591.19 831.38 597.58 831.51
  Q 618.62 831.95 639.66 831.88
  A 0.45 0.45 0.0 0 1 640.11 832.31
  L 640.70 853.66
  Q 640.72 854.29 640.09 854.29
  L 605.69 854.51
  A 0.62 0.62 0.0 0 0 605.07 855.13
  C 605.10 878.23 605.40 901.42 604.61 924.58
  A 0.66 0.65 1.7 0 0 605.26 925.26
  L 634.51 925.27
  A 0.37 0.37 0.0 0 1 634.88 925.64
  L 634.87 946.72
  A 0.98 0.97 -90.0 0 1 633.90 947.70
  L 605.51 947.74
  Q 605.02 947.74 605.02 948.24
  Z"
/>
<path fill="#f0ffff" d="
  M 697.90 994.14
  A 0.59 0.59 0.0 0 0 698.74 993.67
  L 715.26 832.47
  Q 715.32 831.90 715.90 831.90
  L 743.80 831.84
  Q 744.30 831.84 744.30 832.34
  Q 744.34 838.08 743.29 843.80
  Q 742.48 848.24 741.77 852.71
  Q 740.94 857.95 740.31 863.22
  C 738.00 882.62 735.03 901.96 732.42 921.32
  Q 732.41 921.39 731.29 928.64
  C 730.73 932.30 730.49 936.12 729.91 939.61
  Q 728.50 948.02 727.51 956.50
  C 727.05 960.42 726.28 964.29 725.91 968.20
  C 725.45 973.10 724.35 977.99 724.02 982.87
  C 723.94 984.20 723.38 985.21 723.29 986.45
  C 722.94 991.52 721.81 997.40 721.31 1001.52
  Q 720.12 1011.41 718.77 1021.28
  Q 717.42 1031.17 715.77 1041.02
  C 715.24 1044.20 715.33 1047.67 714.84 1051.03
  A 1.09 1.08 3.9 0 1 713.76 1051.96
  L 682.25 1051.95
  Q 681.02 1051.95 680.85 1050.74
  L 650.77 832.21
  A 0.29 0.29 0.0 0 1 651.06 831.88
  L 679.98 831.88
  Q 680.45 831.88 680.48 832.36
  C 680.58 833.88 680.42 835.36 680.70 836.85
  Q 681.31 840.20 681.31 843.60
  C 681.31 846.15 682.00 848.54 682.05 851.16
  Q 682.08 852.89 682.55 855.28
  C 682.92 857.17 682.66 858.95 683.07 860.87
  C 683.65 863.54 683.53 866.42 683.91 869.06
  C 684.22 871.16 684.10 873.35 684.37 875.31
  Q 685.75 885.29 686.41 895.34
  Q 686.45 895.85 686.92 898.61
  C 687.23 900.46 686.70 902.32 687.37 904.21
  C 688.02 906.03 687.63 907.77 687.97 909.64
  C 688.87 914.65 688.48 920.23 689.86 925.07
  Q 690.00 925.55 689.97 926.04
  C 689.78 928.81 690.53 931.78 690.68 934.00
  Q 691.09 940.24 691.91 946.43
  C 692.11 947.90 691.96 950.28 692.33 952.13
  Q 692.63 953.60 692.68 954.38
  Q 693.19 961.36 694.04 968.29
  C 694.20 969.65 694.11 972.77 694.67 974.94
  C 695.25 977.21 694.83 979.29 695.26 981.56
  C 695.95 985.17 695.84 988.75 696.60 992.28
  Q 696.90 993.65 697.90 994.14
  Z"
/>
<path fill="#f0ffff" d="
  M 791.27 948.10
  L 791.27 1023.43
  A 0.38 0.38 0.0 0 0 791.65 1023.81
  L 826.38 1023.48
  A 0.38 0.38 0.0 0 1 826.76 1023.86
  L 826.76 1051.60
  A 0.38 0.38 0.0 0 1 826.38 1051.98
  L 764.08 1051.98
  A 0.38 0.38 0.0 0 1 763.70 1051.60
  L 763.67 832.19
  A 0.38 0.38 0.0 0 1 764.05 831.81
  L 826.38 831.75
  A 0.38 0.38 0.0 0 1 826.76 832.13
  L 826.76 854.10
  A 0.38 0.38 0.0 0 1 826.38 854.48
  L 791.65 854.44
  A 0.38 0.38 0.0 0 0 791.27 854.82
  L 791.27 924.88
  A 0.38 0.38 0.0 0 0 791.65 925.26
  L 821.36 925.27
  A 0.38 0.38 0.0 0 1 821.74 925.65
  L 821.75 947.33
  A 0.38 0.38 0.0 0 1 821.37 947.71
  L 791.65 947.72
  A 0.38 0.38 0.0 0 0 791.27 948.10
  Z"
/>
<path fill="#f0ffff" d="
  M 1005.63 858.28
  L 1005.63 1051.55
  A 0.43 0.43 0.0 0 1 1005.20 1051.98
  L 978.35 1051.98
  A 1.13 1.13 0.0 0 1 977.22 1050.85
  L 977.09 858.41
  A 0.92 0.91 -0.3 0 0 976.16 857.50
  L 951.73 857.74
  Q 949.95 857.76 949.95 855.98
  L 949.96 832.48
  A 0.44 0.44 0.0 0 1 950.37 832.04
  Q 960.16 831.35 969.55 831.56
  C 989.61 831.99 1009.68 831.93 1029.75 831.91
  Q 1030.93 831.91 1031.76 831.58
  A 0.46 0.45 -11.0 0 1 1032.39 832.00
  L 1032.40 856.71
  A 0.86 0.86 0.0 0 1 1031.54 857.57
  L 1006.22 857.68
  Q 1005.63 857.68 1005.63 858.28
  Z"
/>
<path fill="#f0ffff" d="
  M 141.37 958.54
  A 0.22 0.21 -0.0 0 0 141.15 958.75
  L 141.16 1051.35
  A 0.52 0.51 90.0 0 1 140.65 1051.87
  L 114.24 1052.01
  Q 113.73 1052.01 113.73 1051.49
  L 113.73 832.49
  Q 113.73 831.95 114.27 831.95
  Q 137.29 831.72 160.19 831.94
  C 160.99 831.95 161.73 832.58 162.26 832.57
  C 180.98 832.25 190.49 846.53 193.18 863.41
  Q 193.20 863.54 193.83 866.06
  C 194.16 867.38 193.88 868.64 194.23 869.95
  C 194.80 872.13 194.71 874.61 194.93 876.35
  Q 195.98 884.54 196.77 892.75
  Q 197.10 896.15 196.52 899.50
  C 196.10 901.89 196.19 904.39 195.83 906.65
  Q 195.01 911.84 194.73 917.08
  C 194.61 919.18 194.01 921.83 193.95 924.29
  Q 193.91 925.78 193.45 927.12
  C 192.66 929.44 192.32 931.96 191.55 934.09
  C 188.57 942.38 185.49 948.78 178.08 953.93
  C 175.45 955.75 169.83 957.81 166.49 957.75
  C 163.40 957.70 160.30 958.49 157.49 958.50
  Q 149.40 958.50 141.37 958.54
  Z
  M 141.15 855.86
  L 141.15 934.62
  A 1.77 1.77 0.0 0 0 142.92 936.39
  L 157.65 936.39
  A 24.87 12.38 90.0 0 0 170.03 911.52
  L 170.03 878.96
  A 24.87 12.38 -90.0 0 0 157.65 854.09
  L 142.92 854.09
  A 1.77 1.77 0.0 0 0 141.15 855.86
  Z"
/>
<path fill="#f0ffff" d="
  M 244.23 947.75
  Q 243.27 947.78 243.27 948.74
  L 243.27 1050.60
  A 1.37 1.37 0.0 0 1 241.90 1051.97
  L 216.47 1051.93
  A 1.46 1.45 -90.0 0 1 215.02 1050.47
  L 215.02 832.24
  A 0.35 0.34 -0.9 0 1 215.36 831.90
  Q 238.42 831.70 261.57 831.94
  Q 262.81 831.95 265.38 832.44
  C 267.16 832.78 268.76 832.54 270.49 833.00
  Q 276.21 834.53 279.17 836.06
  C 289.15 841.22 294.36 851.22 296.14 861.93
  C 296.29 862.83 296.90 864.28 296.83 865.67
  C 296.72 867.77 297.50 869.52 297.51 871.57
  C 297.52 883.22 298.27 895.52 296.80 907.04
  Q 295.64 916.15 294.64 919.00
  Q 293.39 922.53 292.46 926.15
  C 291.29 930.72 288.15 933.65 286.03 937.84
  A 1.11 1.10 -60.8 0 0 286.43 939.28
  C 287.89 940.18 289.14 940.78 289.93 942.43
  C 293.25 949.32 294.84 956.77 295.72 964.22
  C 295.94 966.03 295.90 968.03 296.29 969.75
  C 296.86 972.34 296.67 974.46 296.92 976.62
  C 297.61 982.79 297.85 988.99 298.86 995.12
  C 299.18 997.08 298.88 998.97 299.28 1000.93
  C 300.01 1004.61 299.62 1008.14 300.19 1011.89
  Q 300.46 1013.67 300.50 1015.46
  C 300.56 1018.17 301.21 1020.61 301.23 1023.33
  C 301.26 1026.45 302.00 1029.25 301.95 1032.39
  C 301.89 1035.80 302.65 1038.75 302.69 1042.08
  C 302.72 1044.96 303.67 1048.17 303.18 1051.37
  Q 303.12 1051.78 302.70 1051.79
  L 277.31 1051.87
  A 2.08 2.08 0.0 0 1 275.23 1049.84
  C 275.08 1042.41 274.25 1034.42 274.46 1026.77
  C 274.51 1024.66 273.60 1022.88 273.72 1020.91
  C 273.97 1016.76 273.04 1012.13 273.01 1008.74
  C 272.94 1002.48 272.12 996.13 272.21 989.78
  C 272.28 984.70 271.08 979.78 270.75 974.73
  C 270.62 972.87 270.08 971.33 270.13 969.40
  Q 270.20 966.90 269.53 964.53
  Q 268.63 961.32 268.35 959.84
  C 267.00 952.84 263.91 947.96 256.19 947.76
  Q 250.00 947.59 244.23 947.75
  Z
  M 258.78 925.15
  C 266.77 924.90 269.58 918.90 270.14 911.83
  Q 270.38 908.85 270.93 905.91
  C 271.78 901.29 271.31 896.85 271.92 892.20
  C 273.17 882.74 271.49 873.05 270.06 863.74
  Q 269.44 859.71 265.15 856.27
  C 261.16 853.08 249.08 854.27 243.99 854.28
  A 0.74 0.74 0.0 0 0 243.25 855.02
  L 243.25 924.75
  A 0.48 0.47 0.6 0 0 243.72 925.22
  Q 251.15 925.40 258.78 925.15
  Z"
/>
<path fill="#f0ffff" d="
  M 465.73 854.28
  L 445.78 854.32
  Q 445.25 854.32 445.25 853.78
  L 445.28 833.12
  A 1.23 1.23 0.0 0 1 446.51 831.89
  L 493.95 831.87
  Q 494.48 831.87 494.48 832.40
  Q 494.52 889.37 494.50 946.24
  C 494.49 961.23 493.53 977.80 493.76 993.66
  Q 493.79 995.93 493.23 1000.30
  C 492.84 1003.30 493.11 1006.44 492.73 1009.21
  C 490.53 1025.21 487.53 1049.76 466.91 1052.95
  C 451.60 1055.32 439.41 1055.09 428.73 1042.26
  Q 426.81 1039.95 425.23 1036.18
  Q 421.00 1026.10 420.04 1017.24
  Q 419.81 1015.10 419.57 1013.83
  C 419.19 1011.82 419.29 1010.23 419.15 1008.36
  Q 419.12 1007.95 419.53 1007.92
  Q 432.50 1006.81 445.51 1007.44
  Q 446.77 1007.50 446.69 1008.76
  Q 446.16 1017.71 451.34 1025.00
  A 1.47 1.44 80.0 0 0 452.14 1025.57
  C 460.71 1028.08 461.83 1023.37 463.88 1017.05
  C 464.88 1013.98 464.90 1011.18 465.20 1008.56
  C 465.77 1003.74 465.39 998.95 465.73 994.12
  Q 466.20 987.53 466.21 984.36
  Q 466.37 919.55 466.20 854.74
  Q 466.20 854.28 465.73 854.28
  Z"
/>
<rect fill="#f0ffff" x="-14.03" y="-14.25" transform="translate(535.44,1037.38) rotate(0.2)" width="28.06" height="28.50" rx="11.27"/>
<ellipse fill="#f0ffff" cx="0.00" cy="0.00" transform="translate(833.71,1126.13) rotate(67.5)" rx="2.40" ry="1.75"/>
<path fill="#f0ffff" d="
  M 791.30 1126.97
  Q 791.32 1127.84 790.53 1128.20
  L 789.50 1128.68
  A 0.91 0.91 0.0 0 1 788.21 1127.73
  L 788.52 1125.30
  Q 788.60 1124.72 789.12 1124.46
  Q 789.97 1124.05 790.80 1124.45
  Q 791.24 1124.67 791.25 1125.16
  L 791.30 1126.97
  Z"
/>
<path fill="#f0ffff" d="
  M 978.86 1138.02
  L 978.75 1159.19
  A 0.59 0.59 0.0 0 1 978.16 1159.77
  L 976.65 1159.76
  A 0.59 0.59 0.0 0 1 976.07 1159.17
  L 976.00 1137.93
  A 0.59 0.59 0.0 0 0 975.41 1137.35
  L 970.68 1137.40
  A 0.59 0.59 0.0 0 1 970.10 1136.93
  L 969.46 1134.05
  A 0.59 0.59 0.0 0 1 970.05 1133.34
  L 984.87 1133.84
  A 0.59 0.59 0.0 0 1 985.37 1134.72
  L 984.09 1136.99
  A 0.59 0.59 0.0 0 1 983.60 1137.29
  L 979.43 1137.43
  A 0.59 0.59 0.0 0 0 978.86 1138.02
  Z"
/>
<path fill="#f0ffff" d="
  M 1024.28 1143.70
  A 0.37 0.37 0.0 0 0 1023.77 1144.04
  L 1023.73 1158.57
  Q 1023.72 1159.85 1022.45 1159.87
  L 1021.89 1159.89
  Q 1020.87 1159.91 1020.87 1158.89
  L 1020.88 1134.75
  A 0.98 0.98 0.0 0 1 1021.78 1133.77
  Q 1023.14 1133.66 1023.99 1135.26
  Q 1025.97 1139.03 1027.89 1142.85
  C 1029.04 1145.13 1029.86 1148.24 1031.52 1150.51
  Q 1032.48 1151.82 1032.48 1150.19
  L 1032.48 1134.27
  Q 1032.48 1133.01 1033.69 1133.39
  L 1033.97 1133.47
  A 1.87 1.86 -81.3 0 1 1035.27 1135.25
  L 1035.27 1158.50
  A 1.28 1.28 0.0 0 1 1033.51 1159.69
  C 1030.93 1158.65 1031.17 1156.47 1030.28 1154.76
  Q 1027.58 1149.54 1024.87 1144.34
  Q 1024.62 1143.85 1024.28 1143.70
  Z"
/>
<path fill="#f0ffff" d="
  M 1061.2607 1152.1398
  A 7.65 7.65 0.0 0 1 1053.5575 1159.7362
  L 1051.6775 1159.7231
  A 7.65 7.65 0.0 0 1 1044.0811 1152.0199
  L 1044.1593 1140.8202
  A 7.65 7.65 0.0 0 1 1051.8625 1133.2238
  L 1053.7425 1133.2369
  A 7.65 7.65 0.0 0 1 1061.3389 1140.9401
  L 1061.2607 1152.1398
  Z
  M 1050.88 1155.87
  C 1059.73 1158.91 1057.77 1147.04 1057.76 1142.61
  C 1057.76 1136.87 1053.13 1136.37 1049.07 1137.99
  A 1.07 1.04 83.9 0 0 1048.42 1138.82
  C 1048.18 1140.50 1047.60 1141.84 1047.61 1143.53
  Q 1047.63 1147.16 1047.62 1150.79
  Q 1047.62 1151.28 1047.93 1151.65
  Q 1048.30 1152.10 1048.29 1152.47
  Q 1048.19 1154.95 1050.88 1155.87
  Z"
/>
<path fill="#f0ffff" d="
  M 316.3191 1152.4885
  A 7.31 7.31 0.0 0 1 308.9582 1159.7473
  L 306.7783 1159.7321
  A 7.31 7.31 0.0 0 1 299.5195 1152.3712
  L 299.6009 1140.7115
  A 7.31 7.31 0.0 0 1 306.9618 1133.4527
  L 309.1417 1133.4679
  A 7.31 7.31 0.0 0 1 316.4005 1140.8288
  L 316.3191 1152.4885
  Z
  M 305.03 1155.88
  Q 308.84 1157.11 312.19 1155.18
  Q 312.69 1154.90 312.71 1154.32
  Q 312.98 1146.79 312.74 1139.26
  C 312.70 1137.99 312.01 1137.24 310.75 1137.32
  Q 310.27 1137.35 309.83 1137.15
  C 305.70 1135.32 304.28 1137.58 302.95 1140.86
  C 302.14 1142.86 302.64 1146.89 302.63 1149.13
  C 302.62 1151.54 303.25 1153.37 304.37 1155.34
  Q 304.59 1155.74 305.03 1155.88
  Z"
/>
<path fill="#f0ffff" d="
  M 571.98 1137.73
  L 571.97 1144.35
  A 0.32 0.32 0.0 0 0 572.29 1144.67
  L 580.50 1144.74
  A 0.32 0.32 0.0 0 1 580.82 1145.10
  L 580.40 1147.98
  A 0.32 0.32 0.0 0 1 580.08 1148.25
  L 572.28 1148.25
  A 0.32 0.32 0.0 0 0 571.96 1148.57
  L 571.96 1155.93
  A 0.32 0.32 0.0 0 0 572.28 1156.25
  L 580.95 1156.25
  A 0.32 0.32 0.0 0 1 581.27 1156.56
  L 581.36 1159.46
  A 0.32 0.32 0.0 0 1 581.04 1159.79
  L 569.41 1159.78
  A 0.32 0.32 0.0 0 1 569.09 1159.46
  L 569.09 1134.10
  A 0.32 0.32 0.0 0 1 569.41 1133.78
  L 580.96 1133.65
  A 0.32 0.32 0.0 0 1 581.29 1133.97
  L 581.34 1137.04
  A 0.32 0.32 0.0 0 1 581.03 1137.36
  L 572.30 1137.41
  A 0.32 0.32 0.0 0 0 571.98 1137.73
  Z"
/>
<path fill="#f0ffff" d="
  M 643.7914 1152.9457
  A 6.92 6.92 0.0 0 1 636.7517 1159.7438
  L 633.7921 1159.6922
  A 6.92 6.92 0.0 0 1 626.9939 1152.6525
  L 627.2086 1140.3543
  A 6.92 6.92 0.0 0 1 634.2483 1133.5562
  L 637.2079 1133.6078
  A 6.92 6.92 0.0 0 1 644.0061 1140.6475
  L 643.7914 1152.9457
  Z
  M 640.8033 1141.8532
  A 5.02 5.02 0.0 0 0 635.8806 1136.7378
  L 635.2607 1136.7259
  A 5.02 5.02 0.0 0 0 630.1452 1141.6486
  L 629.9567 1151.4668
  A 5.02 5.02 0.0 0 0 634.8794 1156.5822
  L 635.4993 1156.5941
  A 5.02 5.02 0.0 0 0 640.6148 1151.6714
  L 640.8033 1141.8532
  Z"
/>
<path fill="#f0ffff" d="
  M 1074.06 1154.15
  C 1076.62 1157.19 1080.81 1156.83 1083.50 1154.10
  Q 1083.85 1153.74 1083.85 1153.23
  L 1083.87 1135.01
  Q 1083.87 1134.01 1084.86 1134.11
  L 1086.47 1134.28
  Q 1087.40 1134.37 1087.41 1135.30
  Q 1087.55 1143.53 1087.32 1152.25
  C 1087.11 1160.04 1077.72 1161.20 1072.42 1158.12
  Q 1072.00 1157.88 1071.78 1157.44
  C 1071.01 1155.84 1070.13 1154.62 1070.13 1152.77
  Q 1070.12 1143.43 1070.11 1134.35
  Q 1070.11 1133.42 1071.04 1133.46
  L 1071.95 1133.49
  A 1.05 1.05 0.0 0 1 1072.96 1134.54
  Q 1072.97 1140.22 1072.98 1146.17
  C 1072.99 1148.56 1073.52 1150.86 1073.71 1153.30
  Q 1073.75 1153.78 1074.06 1154.15
  Z"
/>
<path fill="#f0ffff" d="
  M 1223.57 1144.71
  L 1230.48 1144.71
  A 0.81 0.81 0.0 0 1 1231.24 1145.78
  L 1230.60 1147.70
  A 0.81 0.81 0.0 0 1 1229.84 1148.25
  L 1223.58 1148.25
  A 0.81 0.81 0.0 0 0 1222.77 1149.06
  L 1222.78 1155.44
  A 0.81 0.81 0.0 0 0 1223.59 1156.25
  L 1231.25 1156.25
  A 0.81 0.81 0.0 0 1 1232.05 1156.94
  L 1232.34 1158.85
  A 0.81 0.81 0.0 0 1 1231.54 1159.78
  L 1220.80 1159.79
  A 0.81 0.81 0.0 0 1 1219.99 1158.98
  L 1219.99 1134.43
  A 0.81 0.81 0.0 0 1 1220.79 1133.62
  L 1231.46 1133.47
  A 0.81 0.81 0.0 0 1 1232.28 1134.32
  L 1232.18 1136.59
  A 0.81 0.81 0.0 0 1 1231.38 1137.36
  L 1223.60 1137.41
  A 0.81 0.81 0.0 0 0 1222.80 1138.21
  L 1222.76 1143.90
  A 0.81 0.81 0.0 0 0 1223.57 1144.71
  Z"
/>
<path fill="#f0ffff" d="
  M 216.46 1155.20
  Q 219.87 1157.05 223.27 1155.70
  C 226.00 1154.62 225.94 1152.84 225.94 1150.25
  Q 225.96 1142.26 225.96 1134.64
  Q 225.96 1133.80 226.77 1134.04
  L 228.06 1134.43
  Q 228.76 1134.64 228.76 1135.37
  Q 228.75 1142.52 228.75 1149.99
  Q 228.75 1154.07 227.91 1155.88
  C 226.22 1159.52 219.96 1160.97 215.99 1159.34
  C 214.03 1158.53 213.38 1156.35 212.46 1154.71
  Q 212.22 1154.28 212.21 1153.78
  L 212.19 1134.50
  Q 212.19 1133.69 213.00 1133.75
  L 214.03 1133.83
  A 1.06 1.05 2.6 0 1 215.00 1134.89
  Q 214.97 1142.69 215.04 1150.47
  C 215.06 1151.93 215.54 1153.07 215.87 1154.44
  Q 216.00 1154.95 216.46 1155.20
  Z"
/>
<path fill="#f0ffff" d="
  M 249.71 1150.02
  L 250.03 1135.02
  Q 250.05 1133.85 251.22 1133.79
  L 251.80 1133.77
  A 0.79 0.79 0.0 0 1 252.63 1134.56
  L 252.64 1158.50
  Q 252.64 1159.05 252.10 1159.20
  C 250.84 1159.55 249.79 1159.11 249.20 1157.85
  Q 246.92 1152.91 244.35 1148.11
  C 243.63 1146.77 243.28 1144.62 242.25 1143.53
  Q 241.03 1142.25 241.03 1144.02
  L 241.03 1158.80
  Q 241.03 1159.13 240.70 1159.12
  L 238.61 1159.11
  A 0.38 0.38 0.0 0 1 238.24 1158.73
  L 238.24 1135.02
  Q 238.24 1134.64 238.62 1134.56
  C 240.20 1134.24 241.14 1134.65 241.89 1136.11
  Q 245.62 1143.28 248.87 1150.20
  Q 249.67 1151.92 249.71 1150.02
  Z"
/>
<path fill="#f0ffff" d="
  M 284.97 1156.76
  C 288.47 1155.77 289.77 1151.86 286.32 1149.70
  Q 283.07 1147.64 279.78 1145.68
  C 276.29 1143.60 276.20 1141.05 276.72 1137.36
  Q 276.79 1136.88 277.13 1136.54
  C 280.32 1133.34 286.12 1132.40 289.43 1136.09
  Q 290.70 1137.50 290.18 1139.26
  A 0.66 0.66 0.0 0 1 289.45 1139.73
  C 287.47 1139.43 286.42 1137.86 284.94 1137.39
  Q 282.18 1136.52 279.90 1138.37
  Q 279.54 1138.67 279.50 1139.13
  C 278.94 1146.01 294.18 1145.02 291.27 1153.56
  C 290.79 1154.95 290.53 1156.45 289.41 1157.45
  Q 285.18 1161.22 279.65 1158.58
  Q 276.72 1157.18 277.33 1153.95
  Q 277.40 1153.61 277.72 1153.76
  L 284.05 1156.68
  Q 284.49 1156.89 284.97 1156.76
  Z"
/>
<path fill="#f0ffff" d="
  M 328.75 1144.59
  Q 328.51 1151.02 328.72 1158.87
  A 0.90 0.89 0.9 0 1 327.77 1159.79
  L 326.73 1159.72
  Q 325.81 1159.65 325.81 1158.73
  L 325.81 1135.23
  A 0.94 0.94 0.0 0 1 327.18 1134.40
  Q 329.16 1135.42 329.66 1137.58
  Q 329.78 1138.10 330.15 1138.48
  C 331.41 1139.76 331.73 1141.41 332.49 1142.70
  C 333.72 1144.78 334.77 1148.73 336.43 1150.48
  Q 336.98 1151.05 336.91 1150.26
  Q 336.28 1142.29 337.40 1134.38
  A 0.74 0.73 -76.5 0 1 338.36 1133.79
  L 338.61 1133.87
  Q 339.71 1134.24 339.73 1135.40
  C 339.84 1140.29 340.12 1144.76 339.74 1149.87
  Q 339.40 1154.55 339.53 1159.26
  A 0.57 0.56 87.9 0 1 339.00 1159.84
  C 337.84 1159.93 337.09 1159.45 336.66 1158.32
  C 334.80 1153.43 331.98 1149.22 330.16 1144.37
  Q 328.89 1140.98 328.75 1144.59
  Z"
/>
<path fill="#f0ffff" d="
  M 380.83 1142.50
  L 380.22 1159.18
  Q 380.20 1159.80 379.58 1159.79
  L 377.97 1159.76
  Q 377.29 1159.75 377.28 1159.07
  C 377.19 1149.82 376.53 1141.00 377.78 1134.38
  Q 377.89 1133.78 378.51 1133.78
  L 380.57 1133.79
  Q 381.27 1133.79 381.54 1134.43
  Q 384.81 1142.02 386.89 1150.03
  Q 387.39 1151.93 388.25 1150.17
  C 389.21 1148.20 389.54 1145.77 390.31 1143.99
  C 391.13 1142.11 391.92 1140.66 392.54 1138.52
  Q 393.21 1136.22 394.53 1134.20
  Q 394.80 1133.78 395.30 1133.78
  L 397.45 1133.77
  A 1.43 1.43 0.0 0 1 398.88 1135.20
  L 398.89 1157.89
  Q 398.89 1159.67 397.11 1159.77
  L 396.74 1159.79
  A 1.32 1.32 0.0 0 1 395.35 1158.48
  L 395.30 1142.99
  Q 395.30 1142.33 394.77 1142.72
  Q 394.07 1143.22 393.84 1144.03
  Q 391.78 1151.17 389.01 1158.08
  Q 388.68 1158.93 388.16 1159.16
  Q 387.60 1159.40 387.01 1159.11
  Q 386.59 1158.91 386.63 1158.44
  C 386.78 1156.48 385.64 1155.15 385.21 1153.77
  Q 384.21 1150.57 382.94 1147.48
  C 382.38 1146.12 382.28 1143.96 381.18 1142.39
  Q 380.85 1141.93 380.83 1142.50
  Z"
/>
<path fill="#f0ffff" d="
  M 411.77 1153.06
  C 410.95 1154.98 411.20 1157.09 411.25 1158.89
  Q 411.27 1159.71 410.45 1159.80
  L 409.69 1159.87
  Q 408.32 1160.01 408.33 1158.64
  C 408.40 1150.88 407.54 1141.84 409.07 1134.16
  Q 409.16 1133.75 409.57 1133.75
  L 418.34 1133.85
  A 3.73 3.73 0.0 0 1 422.03 1137.58
  L 422.03 1149.26
  A 2.12 2.11 84.9 0 1 420.31 1151.33
  L 411.99 1152.89
  A 0.31 0.28 5.0 0 0 411.77 1153.06
  Z
  M 411.84 1138.18
  L 411.55 1147.94
  A 0.99 0.99 0.0 0 0 412.51 1148.96
  L 415.36 1149.04
  A 4.00 3.68 -88.3 0 0 419.15 1145.15
  L 419.26 1141.41
  A 4.00 3.68 -88.3 0 0 415.70 1137.30
  L 412.86 1137.22
  A 0.99 0.99 0.0 0 0 411.84 1138.18
  Z"
/>
<path fill="#f0ffff" d="
  M 433.99 1137.38
  Q 432.86 1137.38 432.92 1138.51
  L 433.19 1143.72
  A 1.03 1.03 0.0 0 0 434.22 1144.70
  L 439.10 1144.71
  Q 440.36 1144.72 440.89 1145.86
  L 441.22 1146.58
  A 1.17 1.17 0.0 0 1 440.16 1148.25
  L 434.84 1148.25
  Q 432.94 1148.25 432.94 1150.16
  L 432.95 1154.47
  Q 432.95 1156.25 434.73 1156.25
  L 442.03 1156.25
  Q 442.32 1156.25 442.32 1156.53
  L 442.34 1159.47
  A 0.31 0.31 0.0 0 1 442.03 1159.78
  L 430.84 1159.79
  Q 430.33 1159.79 430.20 1159.30
  C 429.83 1157.93 429.37 1156.96 429.37 1155.53
  Q 429.32 1146.80 429.53 1138.08
  C 429.56 1136.77 430.05 1135.68 430.16 1134.32
  Q 430.20 1133.79 430.73 1133.79
  L 441.79 1133.79
  Q 442.30 1133.79 442.30 1134.29
  L 442.30 1136.91
  A 0.46 0.46 0.0 0 1 441.84 1137.37
  L 433.99 1137.38
  Z"
/>
<path fill="#f0ffff" d="
  M 455.26 1155.42
  Q 457.31 1156.54 459.85 1156.36
  C 463.15 1156.12 464.62 1153.59 465.87 1150.85
  A 0.78 0.77 -65.8 0 1 466.89 1150.46
  L 467.34 1150.66
  A 1.10 1.10 0.0 0 1 467.93 1152.04
  L 465.95 1157.37
  Q 465.78 1157.83 465.36 1158.07
  C 460.47 1160.95 451.30 1161.15 451.09 1153.22
  C 450.94 1147.52 449.96 1138.13 453.87 1135.16
  C 456.99 1132.80 462.06 1133.58 465.47 1135.15
  Q 465.93 1135.37 466.16 1135.82
  Q 467.24 1137.96 466.95 1140.38
  Q 466.87 1141.02 466.29 1141.32
  L 465.68 1141.63
  Q 465.24 1141.86 464.99 1141.43
  Q 464.15 1140.01 463.96 1138.40
  Q 463.89 1137.89 463.41 1137.73
  Q 459.86 1136.53 456.42 1137.71
  Q 455.93 1137.88 455.68 1138.35
  C 453.16 1142.99 453.79 1148.33 453.96 1153.31
  A 2.48 2.48 0.0 0 0 455.26 1155.42
  Z"
/>
<path fill="#f0ffff" d="
  M 476.19 1141.03
  Q 476.55 1139.85 476.48 1138.60
  Q 476.45 1138.11 476.70 1137.69
  C 478.97 1133.82 481.67 1133.55 485.93 1133.76
  C 490.27 1133.98 492.98 1136.22 492.19 1140.81
  Q 492.10 1141.31 491.63 1141.49
  Q 490.67 1141.85 490.05 1141.14
  C 489.31 1140.28 489.61 1138.90 488.64 1137.78
  Q 488.29 1137.38 487.76 1137.37
  L 482.20 1137.26
  A 2.11 2.11 0.0 0 0 480.05 1139.55
  C 480.17 1140.96 479.27 1142.04 479.26 1143.47
  C 479.22 1147.31 478.06 1153.57 481.67 1156.01
  A 1.38 1.34 61.8 0 0 482.39 1156.24
  C 484.22 1156.28 486.22 1156.60 487.75 1155.57
  Q 489.96 1154.07 490.34 1151.15
  A 0.70 0.69 -2.4 0 1 490.90 1150.55
  Q 491.60 1150.41 492.29 1150.51
  Q 492.87 1150.59 492.94 1151.18
  Q 493.21 1153.73 492.90 1154.40
  C 490.04 1160.68 483.96 1161.02 478.29 1158.28
  Q 477.88 1158.08 477.64 1157.69
  C 475.01 1153.38 475.61 1147.66 475.78 1143.43
  Q 475.83 1142.20 476.19 1141.03
  Z"
/>
<path fill="#f0ffff" d="
  M 537.06 1134.38
  Q 537.84 1134.15 538.36 1136.56
  Q 538.63 1137.86 538.62 1139.19
  C 538.61 1141.20 538.29 1143.90 539.10 1145.75
  C 539.47 1146.62 539.95 1147.53 539.99 1148.48
  C 540.18 1153.26 540.81 1157.55 535.70 1159.00
  Q 531.08 1160.32 526.21 1159.64
  Q 525.81 1159.59 525.77 1159.19
  C 525.63 1157.98 525.00 1157.16 525.01 1155.94
  Q 525.06 1147.84 525.00 1139.75
  C 524.99 1137.83 525.46 1136.18 525.77 1134.26
  Q 525.84 1133.80 526.31 1133.79
  Q 532.80 1133.71 535.37 1133.85
  Q 535.77 1133.87 536.38 1134.28
  Q 536.70 1134.49 537.06 1134.38
  Z
  M 533.79 1142.45
  A 1.56 1.56 0.0 0 0 535.25 1141.16
  L 535.58 1139.25
  A 1.56 1.56 0.0 0 0 534.13 1137.43
  L 530.43 1137.21
  A 1.56 1.56 0.0 0 0 528.79 1138.55
  L 528.48 1140.87
  A 1.56 1.56 0.0 0 0 530.10 1142.64
  L 533.79 1142.45
  Z
  M 536.6065 1148.4145
  A 2.39 2.39 0.0 0 0 534.1958 1146.0454
  L 530.8159 1146.0749
  A 2.39 2.39 0.0 0 0 528.4469 1148.4857
  L 528.4935 1153.8255
  A 2.39 2.39 0.0 0 0 530.9042 1156.1946
  L 534.2841 1156.1651
  A 2.39 2.39 0.0 0 0 536.6531 1153.7543
  L 536.6065 1148.4145
  Z"
/>
<path fill="#f0ffff" d="
  M 619.58 1147.23
  C 619.00 1151.79 614.31 1153.16 610.46 1152.44
  A 1.33 1.32 5.3 0 0 608.89 1153.74
  L 608.87 1157.84
  Q 608.87 1158.87 607.91 1159.26
  L 606.63 1159.77
  A 0.88 0.88 0.0 0 1 605.42 1158.98
  Q 605.13 1148.50 605.30 1139.07
  C 605.32 1137.50 606.03 1136.05 606.02 1134.32
  Q 606.02 1133.81 606.53 1133.80
  C 609.54 1133.76 615.76 1132.94 617.94 1135.14
  C 620.52 1137.77 619.94 1144.34 619.58 1147.23
  Z
  M 616.9064 1139.5440
  A 2.15 2.15 0.0 0 0 614.8019 1137.3494
  L 611.1627 1137.2732
  A 2.15 2.15 0.0 0 0 608.9681 1139.3777
  L 608.8136 1146.7560
  A 2.15 2.15 0.0 0 0 610.9181 1148.9506
  L 614.5573 1149.0268
  A 2.15 2.15 0.0 0 0 616.7519 1146.9223
  L 616.9064 1139.5440
  Z"
/>
<path fill="#f0ffff" d="
  M 689.92 1151.82
  C 689.92 1153.93 691.14 1155.94 691.88 1158.30
  Q 692.03 1158.77 691.77 1159.19
  Q 691.56 1159.54 691.47 1159.58
  A 2.20 2.17 71.6 0 1 688.40 1158.02
  Q 687.67 1154.44 684.86 1152.11
  A 1.75 1.75 0.0 0 0 682.00 1153.45
  L 681.98 1158.56
  A 1.13 1.12 -6.0 0 1 681.08 1159.66
  L 679.93 1159.91
  Q 679.03 1160.10 679.03 1159.18
  L 679.05 1134.87
  Q 679.05 1133.79 680.13 1133.79
  L 688.22 1133.79
  Q 688.73 1133.79 689.10 1134.13
  Q 689.50 1134.50 690.05 1134.55
  Q 690.55 1134.61 690.95 1134.92
  Q 692.64 1136.24 692.78 1138.00
  C 693.15 1142.90 693.83 1148.33 690.34 1150.96
  Q 689.92 1151.28 689.92 1151.82
  Z
  M 681.93 1137.83
  L 682.01 1148.17
  A 0.84 0.84 0.0 0 0 682.85 1149.00
  L 685.11 1148.99
  A 4.94 3.63 -0.4 0 0 690.03 1145.32
  L 689.99 1140.56
  A 4.94 3.63 -0.4 0 0 685.03 1136.97
  L 682.77 1136.98
  A 0.84 0.84 0.0 0 0 681.93 1137.83
  Z"
/>
<path fill="#f0ffff" d="
  M 753.70 1149.88
  Q 754.47 1151.75 754.47 1149.73
  L 754.47 1135.26
  Q 754.47 1133.75 755.99 1133.76
  L 756.39 1133.76
  A 0.88 0.87 -90.0 0 1 757.26 1134.64
  L 757.26 1159.49
  Q 757.26 1159.93 756.83 1159.83
  Q 754.50 1159.31 753.73 1157.33
  C 751.94 1152.73 749.32 1148.33 747.26 1144.05
  Q 746.42 1142.29 746.42 1144.24
  L 746.44 1159.30
  Q 746.44 1160.07 745.68 1159.88
  L 743.74 1159.39
  Q 742.86 1159.16 742.86 1158.26
  L 742.87 1135.22
  Q 742.87 1134.71 743.37 1134.59
  Q 745.63 1134.03 746.67 1135.82
  Q 750.82 1142.98 753.70 1149.88
  Z"
/>
<path fill="#f0ffff" d="
  M 785.99 1149.03
  L 785.79 1155.41
  A 0.81 0.81 0.0 0 0 786.60 1156.25
  L 793.98 1156.25
  A 0.81 0.81 0.0 0 1 794.74 1156.79
  L 795.43 1158.71
  A 0.81 0.81 0.0 0 1 794.67 1159.79
  L 782.77 1159.78
  A 0.81 0.81 0.0 0 1 781.96 1158.97
  L 782.05 1134.60
  A 0.81 0.81 0.0 0 1 782.86 1133.79
  L 794.27 1133.79
  A 0.81 0.81 0.0 0 1 795.06 1134.76
  L 794.66 1136.72
  A 0.81 0.81 0.0 0 1 793.87 1137.36
  L 786.72 1137.41
  A 0.81 0.81 0.0 0 0 785.92 1138.16
  L 785.52 1143.75
  A 0.81 0.81 0.0 0 0 786.31 1144.62
  L 792.73 1144.76
  A 0.81 0.81 0.0 0 1 793.52 1145.62
  L 793.42 1147.48
  A 0.81 0.81 0.0 0 1 792.61 1148.25
  L 786.80 1148.25
  A 0.81 0.81 0.0 0 0 785.99 1149.03
  Z"
/>
<path fill="#f0ffff" d="
  M 809.76 1151.56
  A 0.55 0.55 0.0 0 0 810.82 1151.61
  L 816.41 1135.27
  A 2.18 2.17 4.7 0 1 818.12 1133.83
  L 818.47 1133.78
  Q 820.19 1133.51 819.69 1135.17
  L 812.42 1159.08
  A 1.27 1.27 0.0 0 1 810.41 1159.70
  C 808.71 1158.32 807.20 1152.13 806.42 1149.82
  C 805.82 1148.01 805.41 1145.45 804.54 1143.36
  Q 804.36 1142.93 804.42 1142.47
  L 804.48 1142.03
  Q 804.55 1141.46 804.11 1141.09
  Q 803.67 1140.73 803.64 1140.25
  A 1.07 0.02 87.6 0 0 803.58 1139.27
  Q 802.93 1137.02 802.28 1134.77
  Q 801.88 1133.40 803.27 1133.74
  L 804.39 1134.01
  A 2.27 2.26 -89.8 0 1 806.05 1135.69
  L 809.76 1151.56
  Z"
/>
<path fill="#f0ffff" d="
  M 831.55 1137.34
  Q 830.44 1137.34 830.44 1138.45
  L 830.42 1143.43
  A 1.27 1.27 0.0 0 0 831.68 1144.70
  L 837.99 1144.73
  A 0.39 0.38 -0.0 0 1 838.38 1145.11
  L 838.38 1147.87
  A 0.38 0.38 0.0 0 1 838.00 1148.25
  L 832.21 1148.26
  Q 830.44 1148.26 830.44 1150.04
  L 830.45 1154.23
  Q 830.46 1156.25 832.48 1156.25
  L 838.43 1156.25
  Q 839.91 1156.25 840.27 1157.68
  L 840.39 1158.14
  A 1.33 1.33 0.0 0 1 839.10 1159.79
  L 828.24 1159.77
  A 0.72 0.72 0.0 0 1 827.52 1159.13
  C 826.61 1150.91 827.27 1143.27 827.56 1135.17
  A 1.42 1.41 1.0 0 1 828.98 1133.81
  L 838.68 1133.79
  Q 839.83 1133.79 840.04 1134.92
  L 840.26 1136.04
  A 1.10 1.09 -5.4 0 1 839.18 1137.34
  L 831.55 1137.34
  Z"
/>
<path fill="#f0ffff" d="
  M 859.66 1149.89
  Q 860.14 1150.45 860.14 1149.72
  L 860.13 1134.96
  Q 860.13 1133.81 861.29 1133.79
  L 862.74 1133.77
  Q 863.97 1133.75 863.98 1134.99
  L 864.02 1156.94
  A 2.15 2.15 0.0 0 1 862.45 1159.02
  C 859.35 1159.88 859.50 1156.07 858.54 1154.35
  Q 855.67 1149.17 853.43 1144.35
  Q 852.11 1141.49 852.12 1144.65
  Q 852.14 1149.50 852.11 1155.63
  C 852.10 1156.88 851.50 1157.86 851.39 1159.16
  A 0.63 0.63 0.0 0 1 850.77 1159.75
  L 849.78 1159.79
  Q 849.25 1159.80 849.25 1159.28
  L 849.25 1135.12
  Q 849.25 1134.49 849.88 1134.50
  L 851.59 1134.53
  Q 852.17 1134.53 852.39 1135.07
  Q 854.12 1139.22 856.29 1143.12
  C 857.46 1145.23 857.98 1147.90 859.66 1149.89
  Z"
/>
<path fill="#f0ffff" d="
  M 877.05 1144.70
  L 883.55 1144.71
  Q 884.91 1144.72 884.75 1146.06
  L 884.65 1146.83
  Q 884.49 1148.25 883.05 1148.25
  L 878.15 1148.25
  Q 876.04 1148.25 876.03 1150.36
  L 876.00 1154.24
  Q 875.99 1156.25 877.99 1156.25
  L 884.65 1156.25
  Q 885.32 1156.25 885.40 1156.91
  L 885.68 1159.09
  A 0.62 0.61 86.6 0 1 885.08 1159.78
  L 874.73 1159.78
  A 1.56 1.55 0.2 0 1 873.17 1158.22
  C 873.21 1150.60 872.49 1141.83 873.75 1134.18
  Q 873.82 1133.73 874.28 1133.73
  L 884.97 1133.74
  A 0.48 0.47 -90.0 0 1 885.44 1134.22
  L 885.44 1136.97
  Q 885.44 1137.38 885.03 1137.38
  L 877.46 1137.38
  Q 876.56 1137.38 876.50 1138.28
  L 876.19 1143.79
  Q 876.13 1144.70 877.05 1144.70
  Z"
/>
<path fill="#f0ffff" d="
  M 912.10 1143.84
  C 910.97 1146.43 909.68 1149.15 908.87 1152.06
  C 908.49 1153.43 907.22 1157.46 906.25 1158.50
  A 1.46 1.45 57.4 0 1 903.81 1157.96
  L 899.01 1143.40
  A 0.54 0.53 -13.7 0 0 898.41 1143.04
  Q 898.05 1143.10 897.86 1143.36
  Q 897.77 1143.47 897.76 1143.67
  Q 897.41 1149.82 898.27 1159.18
  Q 898.29 1159.47 898.00 1159.44
  L 894.50 1159.04
  A 0.30 0.29 3.3 0 1 894.23 1158.75
  L 894.27 1134.49
  A 0.56 0.56 0.0 0 1 894.91 1133.94
  L 899.32 1134.54
  Q 899.80 1134.61 899.83 1135.10
  Q 899.91 1136.29 900.05 1136.73
  Q 902.24 1143.57 904.54 1150.38
  Q 904.84 1151.26 905.55 1150.66
  Q 905.87 1150.38 906.18 1149.47
  Q 908.68 1142.04 911.26 1134.62
  Q 911.43 1134.11 911.96 1133.98
  Q 913.79 1133.52 915.71 1133.95
  Q 916.04 1134.03 916.05 1134.37
  L 916.34 1158.87
  A 0.92 0.92 0.0 0 1 915.38 1159.80
  L 913.85 1159.72
  Q 913.01 1159.68 913.01 1158.85
  L 912.97 1144.02
  Q 912.96 1141.89 912.10 1143.84
  Z"
/>
<path fill="#f0ffff" d="
  M 928.86 1138.21
  L 928.91 1143.80
  A 0.81 0.81 0.0 0 0 929.70 1144.60
  L 935.41 1144.77
  A 0.81 0.81 0.0 0 1 936.18 1145.40
  L 936.60 1147.28
  A 0.81 0.81 0.0 0 1 935.81 1148.27
  L 929.69 1148.24
  A 0.81 0.81 0.0 0 0 928.88 1149.05
  L 928.88 1155.44
  A 0.81 0.81 0.0 0 0 929.69 1156.25
  L 937.45 1156.25
  A 0.81 0.81 0.0 0 1 938.26 1157.06
  L 938.26 1158.97
  A 0.81 0.81 0.0 0 1 937.45 1159.78
  L 926.11 1159.79
  A 0.81 0.81 0.0 0 1 925.30 1158.98
  L 925.27 1134.54
  A 0.81 0.81 0.0 0 1 926.08 1133.73
  L 937.45 1133.78
  A 0.81 0.81 0.0 0 1 938.26 1134.60
  L 938.24 1136.54
  A 0.81 0.81 0.0 0 1 937.43 1137.35
  L 929.66 1137.39
  A 0.81 0.81 0.0 0 0 928.86 1138.21
  Z"
/>
<path fill="#f0ffff" d="
  M 950.64 1144.54
  C 950.31 1149.60 950.75 1154.31 949.78 1159.46
  Q 949.68 1159.98 949.15 1159.90
  L 947.89 1159.68
  Q 947.33 1159.59 947.33 1159.02
  L 947.43 1135.17
  Q 947.43 1134.74 947.85 1134.63
  Q 949.06 1134.34 950.27 1134.63
  Q 950.81 1134.76 950.99 1135.29
  Q 952.32 1139.09 954.25 1142.58
  C 955.45 1144.75 956.06 1147.59 957.76 1149.59
  Q 958.60 1150.58 958.60 1149.28
  L 958.61 1134.53
  Q 958.61 1133.67 959.47 1133.74
  L 961.19 1133.89
  A 1.04 1.04 0.0 0 1 962.14 1134.93
  L 962.13 1158.48
  Q 962.13 1158.89 961.73 1158.97
  C 957.06 1159.98 957.62 1156.52 956.37 1154.05
  Q 954.01 1149.38 951.27 1144.40
  Q 950.72 1143.40 950.64 1144.54
  Z"
/>
<path fill="#f0ffff" d="
  M 1096.21 1158.64
  Q 1096.24 1157.48 1095.58 1156.51
  Q 1095.26 1156.03 1095.29 1155.45
  L 1096.29 1135.30
  A 1.57 1.57 0.0 0 1 1097.80 1133.81
  C 1100.78 1133.71 1105.66 1133.16 1107.96 1135.04
  C 1110.42 1137.05 1110.19 1140.68 1109.21 1143.50
  Q 1109.04 1143.98 1109.23 1144.45
  C 1109.98 1146.41 1111.22 1148.35 1111.33 1150.34
  C 1111.55 1154.41 1109.81 1158.53 1105.41 1159.41
  Q 1101.20 1160.26 1097.01 1159.60
  A 0.95 0.95 0.0 0 1 1096.21 1158.64
  Z
  M 1101.07 1136.56
  A 1.37 1.37 0.0 0 0 1099.37 1137.98
  L 1099.59 1141.22
  A 1.37 1.37 0.0 0 0 1100.96 1142.50
  L 1104.90 1142.50
  A 1.37 1.37 0.0 0 0 1106.27 1141.13
  L 1106.27 1138.94
  A 1.37 1.37 0.0 0 0 1105.23 1137.61
  L 1101.07 1136.56
  Z
  M 1099.01 1148.25
  L 1099.18 1154.26
  A 2.11 2.11 0.0 0 0 1101.34 1156.32
  L 1103.12 1156.27
  A 5.13 4.99 -1.6 0 0 1108.11 1151.13
  L 1108.10 1150.87
  A 5.13 4.99 -1.6 0 0 1102.84 1146.03
  L 1101.06 1146.08
  A 2.11 2.11 0.0 0 0 1099.01 1148.25
  Z"
/>
<path fill="#f0ffff" d="
  M 1189.51 1143.31
  C 1189.62 1148.51 1192.08 1151.18 1190.09 1156.87
  C 1188.97 1160.08 1179.79 1159.90 1176.96 1159.74
  A 1.26 1.25 1.7 0 1 1175.77 1158.49
  L 1175.78 1134.27
  Q 1175.78 1133.81 1176.24 1133.80
  C 1179.08 1133.78 1185.19 1133.15 1187.44 1134.54
  C 1189.98 1136.11 1189.46 1140.68 1189.51 1143.31
  Z
  M 1181.34 1136.67
  A 1.61 1.61 0.0 0 0 1179.38 1138.24
  L 1179.38 1140.89
  A 1.61 1.61 0.0 0 0 1180.99 1142.50
  L 1185.10 1142.50
  A 1.61 1.61 0.0 0 0 1186.71 1140.89
  L 1186.71 1139.15
  A 1.61 1.61 0.0 0 0 1185.45 1137.58
  L 1181.34 1136.67
  Z
  M 1187.37 1148.38
  A 2.34 2.34 0.0 0 0 1185.07 1146.06
  L 1181.76 1146.01
  A 2.34 2.34 0.0 0 0 1179.38 1148.35
  L 1179.38 1154.16
  A 2.34 2.34 0.0 0 0 1182.42 1156.39
  L 1185.76 1155.34
  A 2.34 2.34 0.0 0 0 1187.40 1153.09
  L 1187.37 1148.38
  Z"
/>
<path fill="#f0ffff" d="
  M 1203.51 1156.25
  L 1210.92 1156.25
  A 1.75 1.75 0.0 0 1 1212.61 1157.54
  L 1212.68 1157.82
  A 1.56 1.56 0.0 0 1 1211.17 1159.79
  L 1201.50 1159.77
  A 1.77 1.77 0.0 0 1 1199.73 1158.00
  L 1199.73 1134.27
  A 0.49 0.49 0.0 0 1 1200.23 1133.78
  L 1201.80 1133.82
  Q 1202.51 1133.84 1202.51 1134.55
  L 1202.52 1155.26
  A 0.99 0.99 0.0 0 0 1203.51 1156.25
  Z"
/>
<path fill="#f0ffff" d="
  M 1143.25 1134.98
  L 1143.25 1158.59
  A 0.36 0.36 0.0 0 1 1142.97 1158.94
  L 1140.06 1159.64
  A 0.36 0.36 0.0 0 1 1139.62 1159.29
  L 1139.62 1134.64
  A 0.36 0.36 0.0 0 1 1140.02 1134.29
  L 1142.93 1134.62
  A 0.36 0.36 0.0 0 1 1143.25 1134.98
  Z"
/>
<path fill="#f0ffff" d="
  M 1155.52 1153.69
  L 1154.49 1157.99
  A 1.48 1.47 -82.5 0 1 1153.02 1159.12
  L 1151.42 1159.09
  Q 1150.18 1159.07 1150.56 1157.90
  Q 1151.06 1156.36 1151.79 1154.20
  Q 1153.44 1149.34 1154.85 1144.40
  C 1155.42 1142.39 1156.12 1136.92 1158.07 1134.75
  Q 1159.28 1133.39 1160.79 1134.79
  Q 1161.09 1135.07 1161.22 1135.47
  L 1167.97 1157.30
  A 1.42 1.41 81.5 0 1 1166.62 1159.13
  L 1165.51 1159.13
  Q 1164.91 1159.13 1164.65 1158.59
  Q 1164.03 1157.30 1164.24 1156.04
  A 2.38 2.37 4.9 0 0 1161.90 1153.27
  L 1156.06 1153.27
  Q 1155.62 1153.27 1155.52 1153.69
  Z
  M 1158.78 1142.65
  C 1157.78 1144.13 1157.30 1147.54 1156.99 1149.19
  Q 1156.88 1149.76 1157.46 1149.76
  L 1161.55 1149.75
  Q 1162.14 1149.75 1162.04 1149.17
  Q 1161.46 1145.73 1159.80 1142.70
  A 0.60 0.60 0.0 0 0 1158.78 1142.65
  Z"
/>
<path fill="#f0ffff" d="
  M 1124.59 1156.25
  L 1131.73 1156.25
  A 1.34 1.34 0.0 0 1 1133.07 1157.65
  L 1133.06 1158.05
  Q 1133.00 1159.79 1131.26 1159.79
  L 1121.93 1159.78
  A 2.60 2.60 0.0 0 1 1119.33 1157.18
  L 1119.34 1135.02
  A 0.61 0.60 -88.2 0 1 1119.98 1134.41
  L 1122.99 1134.56
  Q 1123.64 1134.59 1123.63 1135.24
  L 1123.44 1155.09
  Q 1123.43 1156.25 1124.59 1156.25
  Z"
/>
<path fill="#f0ffff" d="
  M 368.43 1135.20
  L 368.53 1158.43
  A 0.65 0.65 0.0 0 1 367.89 1159.08
  L 365.46 1159.14
  A 0.65 0.65 0.0 0 1 364.80 1158.49
  L 364.72 1135.47
  A 0.65 0.65 0.0 0 1 365.30 1134.82
  L 367.71 1134.56
  A 0.65 0.65 0.0 0 1 368.43 1135.20
  Z"
/>
<path fill="#f0ffff" d="
  M 505.44 1153.62
  Q 504.45 1155.64 504.57 1157.86
  A 1.10 1.10 0.0 0 1 503.42 1159.02
  Q 502.60 1158.99 501.88 1159.36
  A 1.17 1.17 0.0 0 1 500.23 1157.95
  Q 501.26 1154.91 502.05 1151.74
  C 503.08 1147.56 504.34 1143.95 505.47 1140.01
  Q 506.30 1137.10 507.62 1135.08
  A 1.54 1.54 0.0 0 1 510.26 1135.17
  Q 511.47 1137.31 512.12 1139.82
  C 513.30 1144.31 514.65 1148.73 515.71 1153.25
  Q 515.73 1153.37 515.89 1153.55
  Q 516.14 1153.84 516.15 1154.22
  Q 516.18 1155.80 516.91 1157.16
  A 1.43 1.42 77.8 0 1 515.56 1159.26
  L 515.03 1159.23
  Q 514.34 1159.18 514.18 1158.51
  L 513.16 1154.45
  A 1.53 1.52 82.9 0 0 511.68 1153.29
  L 506.03 1153.25
  Q 505.62 1153.25 505.44 1153.62
  Z
  M 506.45 1148.58
  A 0.77 0.77 0.0 0 0 507.09 1149.51
  L 511.03 1150.05
  A 0.77 0.77 0.0 0 0 511.84 1148.99
  L 509.21 1142.70
  A 0.77 0.77 0.0 0 0 507.75 1142.83
  L 506.45 1148.58
  Z"
/>
<path fill="#f0ffff" d="
  M 551.76 1155.75
  A 0.49 0.49 0.0 0 0 552.25 1156.24
  L 560.43 1156.25
  A 1.42 1.41 84.9 0 1 561.82 1157.42
  L 561.89 1157.77
  A 1.71 1.71 0.0 0 1 560.21 1159.78
  L 551.54 1159.77
  Q 548.81 1159.77 548.81 1157.04
  L 548.83 1135.20
  Q 548.83 1134.48 549.55 1134.48
  L 551.17 1134.48
  Q 551.86 1134.48 551.85 1135.17
  L 551.76 1155.75
  Z"
/>
<path fill="#f0ffff" d="
  M 657.83 1155.55
  Q 661.85 1157.33 665.72 1154.93
  Q 666.18 1154.65 666.18 1154.10
  L 666.21 1134.66
  Q 666.21 1134.53 666.34 1134.53
  L 669.45 1134.52
  Q 669.67 1134.52 669.67 1134.74
  Q 669.74 1143.72 669.64 1152.88
  Q 669.60 1156.60 665.66 1158.47
  Q 657.88 1162.14 653.78 1155.58
  C 651.23 1151.49 652.36 1140.01 652.33 1135.17
  Q 652.33 1134.49 653.00 1134.50
  L 655.73 1134.52
  Q 656.65 1134.53 656.53 1135.44
  Q 655.34 1144.80 656.74 1154.12
  A 1.86 1.85 -82.5 0 0 657.83 1155.55
  Z"
/>
<path fill="#f0ffff" d="
  M 720.35 1152.50
  C 720.36 1157.59 730.52 1158.04 730.52 1151.65
  Q 730.51 1143.10 730.52 1134.78
  A 0.26 0.26 0.0 0 1 730.78 1134.52
  L 733.75 1134.51
  A 0.26 0.25 86.5 0 1 734.01 1134.75
  Q 734.72 1146.00 733.25 1154.49
  C 732.67 1157.81 729.80 1159.75 726.48 1159.78
  C 720.96 1159.81 717.48 1159.49 717.52 1152.90
  Q 717.57 1143.88 717.32 1135.08
  Q 717.30 1134.41 717.97 1134.44
  L 719.53 1134.51
  Q 720.26 1134.55 720.26 1135.28
  Q 720.32 1143.68 720.35 1152.50
  Z"
/>
<rect fill="#f0ffff" x="1007.84" y="1134.51" width="3.60" height="24.60" rx="0.35"/>
<rect fill="#f0ffff" x="-2.13" y="-2.17" transform="translate(1242.40,1157.65) rotate(0.5)" width="4.26" height="4.34" rx="1.42"/>
</svg>
